<?xml version="1.0" encoding="UTF-8"?>
<!-- Generator: Adobe Illustrator 21.0.0, SVG Export Plug-In . SVG Version: 6.00 Build 0)  -->
<svg xmlns="http://www.w3.org/2000/svg" xmlns:xlink="http://www.w3.org/1999/xlink" version="1.1" id="Layer_1" x="0px" y="0px" viewBox="0 0 856.8 205.6" style="enable-background:new 0 0 856.8 205.6;" xml:space="preserve">
<style type="text/css">
	.st0{fill:#FFFFFF;}
	.st1{fill:#FCBA03;}
	.st2{fill:#39595D;}
</style>
<rect class="st0" width="856.8" height="205.6"></rect>
<g transform="translate(346.74332 3.842149)">
	<path class="st1" d="M-285.4,24.5h82.8c18.2,0,33,14.8,33,33v82.8c0,18.2-14.8,33-33,33h-82.8c-18.2,0-33-14.8-33-33V57.5   C-318.4,39.3-303.6,24.5-285.4,24.5z"></path>
	<path class="st0" d="M-285.5,148.4c-2,0-3.7-0.6-5.1-1.9c-1.3-1.4-1.9-3.1-1.9-5.1V80c0-2.1,0.6-3.8,1.9-5.1   c1.4-1.3,3.1-1.9,5.1-1.9c2.1,0,3.8,0.6,5.1,1.9c1.3,1.3,1.9,3,1.9,5.1v61.4c0,2-0.6,3.7-1.9,5.1   C-281.7,147.7-283.4,148.4-285.5,148.4z M-285.5,60.7c-2.5,0-4.6-0.9-6.5-2.6c-1.7-1.8-2.6-4-2.6-6.5s0.9-4.6,2.6-6.3   c1.8-1.8,4-2.8,6.5-2.8s4.6,0.9,6.3,2.8c1.8,1.7,2.8,3.9,2.8,6.3c0,2.5-0.9,4.6-2.8,6.5C-280.9,59.8-283,60.7-285.5,60.7z"></path>
	<path class="st0" d="M-193.1,137.7c1.3,1.4,1.9,3,1.9,4.8c0,1.7-0.6,3-1.8,4.1c-1.1,1.1-2.6,1.7-4.4,1.7c-2.2,0-3.9-0.7-5-2.2   l-21.9-26.2l-20.8,26.2c-1.4,1.5-3,2.2-5,2.2c-1.8,0-3.3-0.6-4.4-1.7c-1-1.1-1.5-2.5-1.5-4.1c0-1.8,0.6-3.5,1.9-5.1l21.4-26.8   l-22.8-26.9c-1.4-1.7-2.1-3.4-2.1-5.2c0-1.6,0.5-2.9,1.5-4c1.1-1.1,2.6-1.7,4.6-1.7c2.2,0,4,0.8,5.2,2.3l22.6,27l20.3-27   c1.2-1.6,2.9-2.3,5.1-2.3c1.8,0,3.3,0.6,4.3,1.8c1.1,1.1,1.7,2.5,1.7,4.1c0,2-0.6,3.9-1.9,5.5l-20.8,27.2L-193.1,137.7z"></path>
	<path class="st2" d="M-136.8,149.9c-4,0-7.5-1.1-10.8-3.2c-3.1-2.2-5.6-5.2-7.3-9.1c-1.7-4-2.6-8.4-2.6-13.2V49.1   c0-2,0.6-3.7,1.9-5c1.3-1.3,2.9-1.9,5-1.9c2,0,3.7,0.6,5,1.9c1.3,1.3,1.9,2.9,1.9,5v75.3c0,3.4,0.6,6.2,1.9,8.4   c1.3,2.2,2.9,3.3,5,3.3h3.4c1.8,0,3.3,0.6,4.4,1.9c1.2,1.3,1.8,2.9,1.8,5c0,2-0.9,3.7-2.6,5c-1.7,1.3-4,1.9-6.8,1.9H-136.8z"></path>
	<path class="st2" d="M-83.1,73.9c7.1,0,13.5,1.7,19.2,5.1c5.8,3.3,10.3,7.9,13.7,13.8c3.4,5.8,5.1,12.3,5.1,19.4V143   c0,2-0.7,3.7-2.1,5.1c-1.3,1.3-2.9,1.9-5,1.9s-3.7-0.6-5.1-1.9c-1.3-1.4-1.9-3.1-1.9-5.1v-5.1c-3.2,4-7.1,7-11.7,9.2   s-9.6,3.3-14.9,3.3c-6.6,0-12.6-1.7-18.1-5c-5.3-3.3-9.6-7.9-12.7-13.7c-3-5.9-4.6-12.4-4.6-19.6s1.7-13.7,5-19.4   c3.3-5.9,7.9-10.5,13.7-13.8C-96.6,75.6-90.2,73.9-83.1,73.9L-83.1,73.9z M-83.1,138c4.6,0,8.7-1.1,12.4-3.3   c3.8-2.3,6.7-5.4,8.8-9.2c2.1-4,3.2-8.4,3.2-13.2c0-4.9-1.1-9.3-3.2-13.2c-2.1-4-5.1-7-8.8-9.2c-3.7-2.3-7.8-3.4-12.4-3.4   s-8.8,1.1-12.5,3.4c-3.7,2.2-6.6,5.3-8.8,9.2c-2.1,4-3.2,8.4-3.2,13.2c0,4.9,1.1,9.3,3.2,13.2c2.2,3.9,5.1,6.9,8.8,9.2   C-91.9,136.9-87.7,138-83.1,138L-83.1,138z"></path>
	<path class="st2" d="M11.3,73.9c6.6,0,12.6,1.7,17.9,5c5.4,3.3,9.7,7.9,12.7,13.8c3.1,5.8,4.7,12.3,4.7,19.4c0,7.2-1.7,13.7-5,19.6   c-3.3,5.8-7.9,10.4-13.8,13.8c-5.8,3.3-12.2,5-19.3,5s-13.5-1.7-19.3-5c-5.7-3.4-10.3-8-13.7-13.8c-3.3-5.9-5-12.4-5-19.6V49.2   c0-2.1,0.6-3.8,1.9-5.1c1.4-1.3,3.1-1.9,5.1-1.9c2.1,0,3.8,0.6,5.1,1.9c1.3,1.3,1.9,3,1.9,5.1v37.2c3.2-4,7.1-7,11.7-9.2   C1,75,6,73.9,11.3,73.9L11.3,73.9z M8.5,138c4.6,0,8.7-1.1,12.4-3.3c3.8-2.3,6.7-5.4,8.8-9.4c2.2-4,3.3-8.4,3.3-13.2   c0-4.9-1.1-9.2-3.3-13.1c-2.1-4-5.1-7-8.8-9.2c-3.7-2.3-7.8-3.4-12.4-3.4s-8.7,1-12.5,3.3c-3.7,2.2-6.6,5.3-8.7,9.2   c-2.1,3.9-3.2,8.2-3.2,13.1s1.1,9.3,3.2,13.2c2.1,4,5,7.1,8.7,9.4C-0.2,136.9,3.9,138,8.5,138z"></path>
	<g>
		<path class="st2" d="M112.5,86.9c-0.9,0-1.6-0.3-2.2-0.8c-0.6-0.6-0.8-1.3-0.8-2.2V57c0-0.9,0.3-1.7,0.8-2.2    c0.6-0.6,1.3-0.8,2.2-0.8c0.9,0,1.7,0.3,2.2,0.8c0.6,0.6,0.8,1.3,0.8,2.2v26.8c0,0.9-0.3,1.6-0.8,2.2S113.4,86.9,112.5,86.9z     M112.5,48.6c-1.1,0-2-0.4-2.8-1.1c-0.8-0.8-1.1-1.7-1.1-2.8s0.4-2,1.1-2.8c0.8-0.8,1.7-1.2,2.8-1.2c1.1,0,2,0.4,2.8,1.2    s1.2,1.7,1.2,2.8s-0.4,2-1.2,2.8C114.5,48.2,113.6,48.6,112.5,48.6z"></path>
		<path class="st2" d="M144.4,53.7c2.8,0,5.3,0.6,7.5,1.8s3.9,3,5.2,5.3c1.2,2.3,1.9,5.1,1.9,8.3v14.8c0,0.9-0.3,1.6-0.9,2.2    c-0.6,0.6-1.3,0.8-2.2,0.8s-1.6-0.3-2.2-0.8c-0.6-0.6-0.8-1.3-0.8-2.2V69.1c0-3.3-0.9-5.7-2.6-7.3c-1.7-1.7-4-2.5-6.9-2.5    c-1.7,0-3.2,0.3-4.6,1c-1.4,0.7-2.4,1.6-3.3,2.8c-0.8,1.2-1.1,2.5-1.1,3.9v17c0,0.9-0.3,1.6-0.8,2.2c-0.6,0.6-1.3,0.8-2.2,0.8    s-1.6-0.3-2.2-0.8c-0.6-0.6-0.8-1.3-0.8-2.2V57c0-0.9,0.3-1.7,0.8-2.2c0.6-0.6,1.3-0.8,2.2-0.8s1.7,0.3,2.2,0.8    c0.6,0.6,0.8,1.3,0.8,2.2v0.7c1.3-1.3,2.8-2.3,4.6-2.9C140.5,54,142.4,53.7,144.4,53.7z"></path>
		<path class="st2" d="M184.8,80.9c0.7,0,1.3,0.3,1.8,0.8c0.5,0.6,0.8,1.3,0.8,2.2c0,0.9-0.3,1.6-1,2.2c-0.6,0.6-1.5,0.8-2.5,0.8    h-1.1c-2,0-3.8-0.5-5.4-1.5c-1.6-1-2.9-2.4-3.8-4.2c-0.9-1.8-1.4-3.8-1.4-6V60.3h-2.8c-0.8,0-1.5-0.2-2-0.7s-0.8-1.1-0.8-1.8    c0-0.8,0.3-1.4,0.8-1.9s1.2-0.7,2-0.7h2.8v-8.7c0-0.9,0.3-1.6,0.8-2.2c0.6-0.6,1.3-0.8,2.2-0.8s1.6,0.3,2.2,0.8    c0.6,0.6,0.8,1.3,0.8,2.2v8.7h5.1c0.8,0,1.5,0.2,2,0.7s0.8,1.1,0.8,1.9c0,0.7-0.3,1.3-0.8,1.8s-1.2,0.7-2,0.7h-5.1v14.9    c0,1.6,0.4,2.9,1.3,4c0.9,1.1,2,1.6,3.3,1.6h2V80.9z"></path>
		<path class="st2" d="M226.2,69.9c0,0.8-0.3,1.4-0.8,1.9s-1.2,0.7-2,0.7h-22.9c0.4,2.8,1.7,5.1,3.8,6.8c2.1,1.7,4.7,2.6,7.8,2.6    c1.2,0,2.4-0.2,3.7-0.7c1.3-0.4,2.4-1,3.3-1.6c0.6-0.4,1.2-0.7,2-0.7s1.4,0.2,1.8,0.6c0.7,0.6,1.1,1.3,1.1,2s-0.3,1.3-1,1.8    c-1.4,1.1-3.1,2-5.1,2.6c-2,0.7-3.9,1-5.8,1c-3.3,0-6.2-0.7-8.8-2.1s-4.7-3.4-6.1-6c-1.4-2.5-2.2-5.4-2.2-8.6s0.7-6.1,2-8.6    c1.4-2.6,3.3-4.6,5.8-6s5.3-2.2,8.4-2.2c3.1,0,5.8,0.7,8,2c2.2,1.4,4,3.3,5.2,5.7C225.6,63.9,226.2,66.7,226.2,69.9z M211.2,58.9    c-2.9,0-5.3,0.8-7.2,2.4c-1.8,1.6-2.9,3.8-3.4,6.4h20c-0.4-2.7-1.4-4.8-3-6.4S213.8,58.9,211.2,58.9z"></path>
		<path class="st2" d="M253.1,53.6c2.1,0,3.8,0.3,5,1c1.2,0.6,1.8,1.4,1.8,2.4c0,0.3,0,0.5-0.1,0.6c-0.4,1.3-1.2,1.9-2.4,1.9    c-0.2,0-0.5,0-0.9-0.1c-1.6-0.3-2.9-0.4-3.9-0.4c-2.9,0-5.2,0.7-7,2s-2.6,3.1-2.6,5.4V84c0,1-0.3,1.7-0.8,2.2S241,87,240,87    s-1.7-0.2-2.2-0.7S237,85,237,84V57c0-1,0.3-1.7,0.8-2.2s1.3-0.8,2.2-0.8c2,0,3,1,3,3v1.1c1.2-1.4,2.7-2.5,4.5-3.3    C249.2,54,251.1,53.6,253.1,53.6L253.1,53.6z"></path>
		<path class="st2" d="M280.1,53.7c3.1,0,5.9,0.7,8.4,2.2c2.5,1.4,4.5,3.5,6,6s2.2,5.4,2.2,8.5v13.4c0,0.9-0.3,1.6-0.9,2.2    s-1.3,0.8-2.2,0.8c-0.9,0-1.6-0.3-2.2-0.8c-0.6-0.6-0.8-1.3-0.8-2.2v-2.2c-1.4,1.7-3.1,3.1-5.1,4c-2,1-4.2,1.4-6.5,1.4    c-2.9,0-5.5-0.7-7.9-2.2c-2.3-1.4-4.2-3.4-5.5-6s-2-5.4-2-8.5s0.7-6,2.2-8.5c1.4-2.6,3.4-4.6,6-6    C274.2,54.5,277.1,53.7,280.1,53.7L280.1,53.7z M280.1,81.7c2,0,3.8-0.5,5.4-1.4c1.6-1,2.9-2.3,3.9-4c0.9-1.7,1.4-3.7,1.4-5.8    c0-2.1-0.5-4.1-1.4-5.8c-0.9-1.7-2.2-3.1-3.9-4c-1.6-1-3.4-1.5-5.4-1.5s-3.8,0.5-5.5,1.5c-1.6,1-2.9,2.3-3.9,4    c-0.9,1.7-1.4,3.7-1.4,5.8c0,2.1,0.5,4.1,1.4,5.8c1,1.7,2.2,3,3.9,4C276.3,81.2,278.1,81.7,280.1,81.7z"></path>
		<path class="st2" d="M322.1,87.1c-3.2,0-6-0.7-8.5-2.2c-2.5-1.4-4.5-3.4-6-6c-1.4-2.6-2.1-5.4-2.1-8.5c0-3.2,0.7-6.1,2-8.6    c1.4-2.6,3.4-4.6,5.8-6c2.5-1.4,5.3-2.2,8.4-2.2c4.7,0,8.7,1.8,11.8,5.4c0.4,0.4,0.6,1,0.6,1.6c0,0.9-0.4,1.6-1.3,2.2    c-0.4,0.3-0.9,0.4-1.4,0.4c-0.9,0-1.7-0.4-2.3-1.1c-1-1.1-2.1-1.9-3.3-2.3c-1.2-0.5-2.5-0.8-4-0.8c-3.1,0-5.6,1-7.5,3.1    c-1.9,2-2.9,4.8-2.9,8.2c0,2.2,0.4,4.1,1.3,5.8c0.9,1.7,2.2,3,3.8,4c1.6,1,3.5,1.4,5.6,1.4c2.7,0,4.9-0.7,6.6-2.1    c0.8-0.6,1.5-0.8,2.2-0.8c0.6,0,1.1,0.2,1.6,0.5c0.8,0.6,1.1,1.4,1.1,2.2c0,0.6-0.2,1.1-0.7,1.6C330.1,85.8,326.5,87.1,322.1,87.1    L322.1,87.1z"></path>
		<path class="st2" d="M357.9,80.9c0.7,0,1.3,0.3,1.8,0.8c0.5,0.6,0.8,1.3,0.8,2.2c0,0.9-0.3,1.6-1,2.2c-0.6,0.6-1.5,0.8-2.5,0.8    h-1.1c-2,0-3.8-0.5-5.4-1.5s-2.9-2.4-3.8-4.2c-0.9-1.8-1.4-3.8-1.4-6V60.3h-2.8c-0.8,0-1.5-0.2-2-0.7s-0.8-1.1-0.8-1.8    c0-0.8,0.3-1.4,0.8-1.9s1.2-0.7,2-0.7h2.8v-8.7c0-0.9,0.3-1.6,0.8-2.2c0.6-0.6,1.3-0.8,2.2-0.8c0.9,0,1.6,0.3,2.2,0.8    c0.6,0.6,0.8,1.3,0.8,2.2v8.7h5.1c0.8,0,1.5,0.2,2,0.7s0.8,1.1,0.8,1.9c0,0.7-0.3,1.3-0.8,1.8s-1.2,0.7-2,0.7h-5.1v14.9    c0,1.6,0.4,2.9,1.3,4s2,1.6,3.3,1.6h2V80.9z"></path>
		<path class="st2" d="M372.9,86.9c-0.9,0-1.6-0.3-2.2-0.8c-0.6-0.6-0.8-1.3-0.8-2.2V57c0-0.9,0.3-1.7,0.8-2.2    c0.6-0.6,1.3-0.8,2.2-0.8c0.9,0,1.7,0.3,2.2,0.8s0.8,1.3,0.8,2.2v26.8c0,0.9-0.3,1.6-0.8,2.2S373.8,86.9,372.9,86.9z M372.9,48.6    c-1.1,0-2-0.4-2.8-1.1c-0.8-0.8-1.1-1.7-1.1-2.8s0.4-2,1.1-2.8c0.8-0.8,1.7-1.2,2.8-1.2c1.1,0,2,0.4,2.8,1.2s1.2,1.7,1.2,2.8    s-0.4,2-1.2,2.8C374.9,48.2,374,48.6,372.9,48.6z"></path>
		<path class="st2" d="M412.8,54.4c0.5,0.2,0.9,0.6,1.2,1c0.3,0.4,0.4,0.9,0.4,1.4c0,0.4-0.1,0.7-0.3,1.1l-12.8,26.9    c-0.6,1.3-1.5,2-2.8,2c-0.7,0-1.2-0.1-1.7-0.4c-0.4-0.3-0.8-0.8-1.2-1.6L383,57.9c-0.2-0.3-0.2-0.7-0.2-1.1c0-1.1,0.6-1.9,1.7-2.5    c0.4-0.2,0.8-0.3,1.3-0.3s0.9,0.1,1.4,0.4c0.4,0.2,0.8,0.6,1,1.1l10.5,22.6l10.4-22.6c0.2-0.5,0.6-0.8,1-1.1    c0.5-0.3,1-0.4,1.5-0.4C412,54.1,412.4,54.2,412.8,54.4L412.8,54.4z"></path>
		<path class="st2" d="M448.9,69.9c0,0.8-0.3,1.4-0.8,1.9s-1.2,0.7-2,0.7h-22.9c0.4,2.8,1.7,5.1,3.8,6.8c2.1,1.7,4.7,2.6,7.8,2.6    c1.2,0,2.4-0.2,3.7-0.7c1.3-0.4,2.4-1,3.3-1.6c0.6-0.4,1.2-0.7,2-0.7s1.4,0.2,1.8,0.6c0.7,0.6,1.1,1.3,1.1,2s-0.3,1.3-1,1.8    c-1.4,1.1-3.1,2-5.1,2.6c-2,0.7-3.9,1-5.8,1c-3.3,0-6.2-0.7-8.8-2.1c-2.6-1.4-4.7-3.4-6.1-6c-1.4-2.5-2.2-5.4-2.2-8.6    s0.7-6.1,2-8.6c1.4-2.6,3.3-4.6,5.8-6s5.3-2.2,8.4-2.2s5.8,0.7,8,2c2.2,1.4,4,3.3,5.2,5.7C448.3,63.9,448.9,66.7,448.9,69.9    L448.9,69.9z M433.9,58.9c-2.9,0-5.3,0.8-7.2,2.4c-1.8,1.6-2.9,3.8-3.4,6.4h20c-0.4-2.7-1.4-4.8-3-6.4    C438.7,59.7,436.6,58.9,433.9,58.9z"></path>
		<path class="st2" d="M139.3,132.4c0,0.8-0.3,1.4-0.8,1.9s-1.2,0.7-2,0.7h-22.9c0.4,2.8,1.7,5.1,3.8,6.8c2.1,1.7,4.7,2.6,7.8,2.6    c1.2,0,2.4-0.2,3.7-0.7c1.3-0.4,2.4-1,3.3-1.6c0.6-0.4,1.2-0.7,2-0.7s1.4,0.2,1.8,0.6c0.7,0.6,1.1,1.3,1.1,2s-0.3,1.3-1,1.8    c-1.4,1.1-3.1,2-5.1,2.6c-2,0.7-3.9,1-5.8,1c-3.3,0-6.2-0.7-8.8-2.1c-2.6-1.4-4.7-3.4-6.1-6c-1.4-2.5-2.2-5.4-2.2-8.6    c0-3.2,0.7-6.1,2-8.6c1.4-2.6,3.3-4.6,5.8-6s5.3-2.2,8.4-2.2s5.8,0.7,8,2c2.2,1.4,4,3.3,5.2,5.7    C138.7,126.4,139.3,129.2,139.3,132.4L139.3,132.4z M124.3,121.4c-2.9,0-5.3,0.8-7.2,2.4c-1.8,1.6-2.9,3.8-3.4,6.4h20    c-0.4-2.7-1.4-4.8-3-6.4S126.9,121.4,124.3,121.4z"></path>
		<path class="st2" d="M170.3,144.7c0.6,0.6,0.8,1.3,0.8,2.1c0,0.7-0.3,1.3-0.8,1.8s-1.1,0.7-1.9,0.7c-1,0-1.7-0.3-2.2-1l-9.6-11.4    l-9.1,11.4c-0.6,0.6-1.3,1-2.2,1c-0.8,0-1.4-0.2-1.9-0.7c-0.4-0.5-0.7-1.1-0.7-1.8c0-0.8,0.3-1.5,0.8-2.2l9.3-11.7l-9.9-11.7    c-0.6-0.7-0.9-1.5-0.9-2.3c0-0.7,0.2-1.3,0.7-1.7c0.5-0.5,1.1-0.7,2-0.7c1,0,1.7,0.3,2.3,1l9.9,11.8l8.8-11.8c0.5-0.7,1.3-1,2.2-1    c0.8,0,1.4,0.3,1.9,0.8s0.7,1.1,0.7,1.8c0,0.9-0.3,1.7-0.8,2.4l-9.1,11.9L170.3,144.7z"></path>
		<path class="st2" d="M195.4,116.2c3.1,0,5.9,0.7,8.4,2.2c2.6,1.4,4.6,3.5,6,6s2.2,5.4,2.2,8.5s-0.7,6-2,8.5s-3.2,4.5-5.5,6    c-2.3,1.4-4.9,2.2-7.8,2.2c-2.3,0-4.5-0.5-6.5-1.4c-2-1-3.7-2.3-5.1-4v16.3c0,0.9-0.3,1.7-0.8,2.2c-0.6,0.6-1.3,0.8-2.2,0.8    s-1.6-0.3-2.2-0.8c-0.6-0.6-0.8-1.3-0.8-2.2v-27.4c0-3.1,0.7-6,2.2-8.5c1.5-2.6,3.5-4.6,6-6C189.5,116.9,192.3,116.2,195.4,116.2    L195.4,116.2z M195.4,144.2c2,0,3.8-0.5,5.4-1.4c1.6-1,2.9-2.3,3.9-4s1.4-3.7,1.4-5.8s-0.5-4.1-1.4-5.8s-2.2-3.1-3.9-4    c-1.6-1-3.4-1.5-5.4-1.5s-3.8,0.5-5.5,1.5c-1.6,1-2.9,2.3-3.8,4c-0.9,1.7-1.4,3.7-1.4,5.8s0.5,4.1,1.4,5.8s2.2,3,3.8,4    C191.6,143.7,193.4,144.2,195.4,144.2z"></path>
		<path class="st2" d="M250.7,132.4c0,0.8-0.3,1.4-0.8,1.9s-1.2,0.7-2,0.7H225c0.4,2.8,1.7,5.1,3.8,6.8s4.7,2.6,7.8,2.6    c1.2,0,2.4-0.2,3.7-0.7c1.3-0.4,2.4-1,3.3-1.6c0.6-0.4,1.2-0.7,2-0.7s1.4,0.2,1.8,0.6c0.7,0.6,1.1,1.3,1.1,2s-0.3,1.3-1,1.8    c-1.4,1.1-3.1,2-5.1,2.6c-2,0.7-3.9,1-5.8,1c-3.3,0-6.2-0.7-8.8-2.1c-2.6-1.4-4.7-3.4-6.1-6c-1.4-2.5-2.2-5.4-2.2-8.6    c0-3.2,0.7-6.1,2-8.6c1.4-2.6,3.3-4.6,5.8-6s5.3-2.2,8.4-2.2c3.1,0,5.8,0.7,8,2c2.2,1.4,4,3.3,5.2,5.7    C250.1,126.4,250.7,129.2,250.7,132.4L250.7,132.4z M235.7,121.4c-2.9,0-5.3,0.8-7.2,2.4c-1.8,1.6-2.9,3.8-3.4,6.4h20    c-0.4-2.7-1.4-4.8-3-6.4S238.4,121.4,235.7,121.4z"></path>
		<path class="st2" d="M275.1,116.1c2.1,0,3.8,0.3,5,1c1.2,0.6,1.8,1.4,1.8,2.4c0,0.3,0,0.5-0.1,0.6c-0.4,1.3-1.2,1.9-2.4,1.9    c-0.2,0-0.5,0-0.9-0.1c-1.6-0.3-2.9-0.4-3.9-0.4c-2.9,0-5.2,0.7-7,2s-2.6,3.1-2.6,5.4v17.6c0,1-0.3,1.7-0.8,2.2s-1.2,0.8-2.2,0.8    s-1.7-0.2-2.2-0.7s-0.8-1.3-0.8-2.3v-26.9c0-1,0.3-1.7,0.8-2.2s1.3-0.8,2.2-0.8c2,0,3,1,3,3v1.1c1.2-1.4,2.7-2.5,4.5-3.3    C271.2,116.5,273.1,116.1,275.1,116.1L275.1,116.1z"></path>
		<path class="st2" d="M293.6,149.4c-0.9,0-1.6-0.3-2.2-0.8c-0.6-0.6-0.8-1.3-0.8-2.2v-26.8c0-0.9,0.3-1.7,0.8-2.2    c0.6-0.6,1.3-0.8,2.2-0.8c0.9,0,1.7,0.3,2.2,0.8c0.6,0.6,0.8,1.3,0.8,2.2v26.8c0,0.9-0.3,1.6-0.8,2.2    C295.3,149.1,294.6,149.4,293.6,149.4z M293.6,111.1c-1.1,0-2-0.4-2.8-1.1c-0.8-0.8-1.1-1.7-1.1-2.8c0-1.1,0.4-2,1.1-2.8    c0.8-0.8,1.7-1.2,2.8-1.2s2,0.4,2.8,1.2c0.8,0.8,1.2,1.7,1.2,2.8c0,1.1-0.4,2-1.2,2.8C295.7,110.7,294.7,111.1,293.6,111.1z"></path>
		<path class="st2" d="M337.8,132.4c0,0.8-0.3,1.4-0.8,1.9s-1.2,0.7-2,0.7h-22.9c0.4,2.8,1.7,5.1,3.8,6.8c2.1,1.7,4.7,2.6,7.8,2.6    c1.2,0,2.4-0.2,3.7-0.7c1.3-0.4,2.4-1,3.3-1.6c0.6-0.4,1.2-0.7,2-0.7s1.4,0.2,1.8,0.6c0.7,0.6,1.1,1.3,1.1,2s-0.3,1.3-1,1.8    c-1.4,1.1-3.1,2-5.1,2.6c-2,0.7-3.9,1-5.8,1c-3.3,0-6.2-0.7-8.8-2.1c-2.6-1.4-4.7-3.4-6.1-6c-1.4-2.5-2.2-5.4-2.2-8.6    c0-3.2,0.7-6.1,2-8.6c1.4-2.6,3.3-4.6,5.8-6s5.3-2.2,8.4-2.2s5.8,0.7,8,2c2.2,1.4,4,3.3,5.2,5.7    C337.2,126.4,337.8,129.2,337.8,132.4L337.8,132.4z M322.8,121.4c-2.9,0-5.3,0.8-7.2,2.4c-1.8,1.6-2.9,3.8-3.4,6.4h20    c-0.4-2.7-1.4-4.8-3-6.4S325.4,121.4,322.8,121.4z"></path>
		<path class="st2" d="M362,116.1c2.8,0,5.3,0.6,7.5,1.8c2.2,1.2,3.9,3,5.2,5.3c1.2,2.3,1.9,5.1,1.9,8.3v14.8c0,0.9-0.3,1.6-0.9,2.2    c-0.6,0.6-1.3,0.8-2.2,0.8c-0.9,0-1.6-0.3-2.2-0.8c-0.6-0.6-0.8-1.3-0.8-2.2v-14.8c0-3.3-0.9-5.7-2.6-7.3c-1.7-1.7-4-2.5-6.9-2.5    c-1.7,0-3.2,0.3-4.6,1s-2.4,1.6-3.3,2.8c-0.8,1.2-1.1,2.5-1.1,3.9v17c0,0.9-0.3,1.6-0.8,2.2c-0.6,0.6-1.3,0.8-2.2,0.8    c-0.9,0-1.6-0.3-2.2-0.8c-0.6-0.6-0.8-1.3-0.8-2.2v-26.8c0-0.9,0.3-1.7,0.8-2.2c0.6-0.6,1.3-0.8,2.2-0.8c0.9,0,1.7,0.3,2.2,0.8    c0.6,0.6,0.8,1.3,0.8,2.2v0.7c1.3-1.3,2.8-2.3,4.6-2.9C358.1,116.5,360,116.1,362,116.1z"></path>
		<path class="st2" d="M401.1,149.6c-3.2,0-6-0.7-8.5-2.2c-2.5-1.4-4.5-3.4-6-6c-1.4-2.6-2.1-5.4-2.1-8.5c0-3.2,0.7-6.1,2-8.6    c1.4-2.6,3.4-4.6,5.8-6c2.5-1.4,5.3-2.2,8.4-2.2c4.7,0,8.7,1.8,11.8,5.4c0.4,0.4,0.6,1,0.6,1.6c0,0.9-0.4,1.6-1.3,2.2    c-0.4,0.3-0.9,0.4-1.4,0.4c-0.9,0-1.7-0.4-2.3-1.1c-1-1.1-2.1-1.9-3.3-2.3c-1.2-0.5-2.5-0.8-4-0.8c-3.1,0-5.6,1-7.5,3.1    c-1.9,2-2.9,4.8-2.9,8.2c0,2.2,0.4,4.1,1.3,5.8s2.2,3,3.8,4c1.6,1,3.5,1.4,5.6,1.4c2.7,0,4.9-0.7,6.6-2.1c0.8-0.6,1.5-0.8,2.2-0.8    c0.6,0,1.1,0.2,1.6,0.5c0.8,0.6,1.1,1.4,1.1,2.2c0,0.6-0.2,1.1-0.7,1.6C409.1,148.3,405.4,149.6,401.1,149.6L401.1,149.6z"></path>
		<path class="st2" d="M448.9,132.4c0,0.8-0.3,1.4-0.8,1.9s-1.2,0.7-2,0.7h-22.9c0.4,2.8,1.7,5.1,3.8,6.8c2.1,1.7,4.7,2.6,7.8,2.6    c1.2,0,2.4-0.2,3.7-0.7c1.3-0.4,2.4-1,3.3-1.6c0.6-0.4,1.2-0.7,2-0.7s1.4,0.2,1.8,0.6c0.7,0.6,1.1,1.3,1.1,2s-0.3,1.3-1,1.8    c-1.4,1.1-3.1,2-5.1,2.6c-2,0.7-3.9,1-5.8,1c-3.3,0-6.2-0.7-8.8-2.1c-2.6-1.4-4.7-3.4-6.1-6c-1.4-2.5-2.2-5.4-2.2-8.6    c0-3.2,0.7-6.1,2-8.6c1.4-2.6,3.3-4.6,5.8-6s5.3-2.2,8.4-2.2s5.8,0.7,8,2c2.2,1.4,4,3.3,5.2,5.7    C448.3,126.4,448.9,129.2,448.9,132.4L448.9,132.4z M434,121.4c-2.9,0-5.3,0.8-7.2,2.4c-1.8,1.6-2.9,3.8-3.4,6.4h20    c-0.4-2.7-1.4-4.8-3-6.4S436.6,121.4,434,121.4L434,121.4z"></path>
		<path class="st2" d="M468.8,149.6c-2.7,0-5.3-0.4-7.7-1.3s-4.3-1.9-5.7-3.3c-0.5-0.5-0.8-1.1-0.8-1.9c0-1,0.4-1.7,1.2-2.3    c0.8-0.6,1.5-0.8,2.1-0.8c0.8,0,1.6,0.4,2.3,1.1c0.8,0.8,1.9,1.6,3.4,2.2c1.5,0.6,3.2,0.9,4.9,0.9c2.3,0,4.1-0.4,5.3-1.1    c1.3-0.8,1.9-1.8,1.9-3.1c0-1.2-0.6-2.3-1.9-3.1c-1.2-0.8-3.4-1.5-6.3-2.1c-7.7-1.5-11.6-4.7-11.6-9.5c0-2,0.6-3.6,1.7-5    c1.2-1.4,2.7-2.4,4.6-3.1s3.9-1,6-1c2.6,0,4.9,0.4,7,1.3c2.1,0.8,3.7,2,4.9,3.5c0.5,0.6,0.8,1.3,0.8,1.9c0,0.7-0.3,1.3-1,1.9    c-0.4,0.3-1,0.5-1.7,0.5c-1,0-2-0.4-2.8-1.1c-1-0.9-2.1-1.6-3.2-1.9c-1.1-0.4-2.5-0.6-4.1-0.6c-1.8,0-3.4,0.3-4.6,1    c-1.2,0.6-1.7,1.5-1.7,2.6c0,0.8,0.2,1.5,0.6,2s1.2,1,2.3,1.5c1.1,0.4,2.7,0.9,4.9,1.3c4.4,0.9,7.5,2.1,9.3,3.7    c1.8,1.6,2.8,3.6,2.8,6.1c0,1.8-0.5,3.5-1.5,5.1c-1,1.5-2.5,2.7-4.5,3.6C473.8,149.2,471.5,149.6,468.8,149.6L468.8,149.6z"></path>
	</g>
	<path class="st1" d="M75.1,24.9h1.2c1.6,0,2.8,1.3,2.8,2.8v142.8c0,1.6-1.3,2.8-2.8,2.8h-1.2c-1.6,0-2.8-1.3-2.8-2.8V27.7   C72.3,26.1,73.6,24.9,75.1,24.9z"></path>
</g>
</svg>
